# xmcd
#
# Track frame offsets:
#	150
#	15450
#	29972
#	46496
#	62254
#	76140
#	91790
#	106900
#	125028
#	138209
#	156259
#	174896
#	192108
#	205814
#	222184
#	236729
#	248804
#
# Disc length: 3476 seconds
# Revision: 0
# Processed by: cddbd v1.5.2PL0 Copyright (c) Steve Scherf et al.
# Submitted via: dBpowerAMP V12.0
#
DISCID=dd0d9211
DTITLE=Various Artist - Old School Shag Volume 1
DYEAR=1900
DGENRE=Beach
TTITLE0=Miranda Louise - Sure Cure For the Blues
TTITLE1=The Mojo Blues Band - Hug You Squeeze You
TTITLE2=William Dell and Weejams - I Love Only You
TTITLE3=King Edwards and BD's - Is You Is or Is You Ain't My Baby
TTITLE4=Subway - Good Gravy Baby
TTITLE5=William Dell and Weejams - Most of Those Pretty Young Girls
TTITLE6=The Holiday Band - She Done Me Wrong
TTITLE7=The Jellyrolls - Rock This House
TTITLE8=The Fabulous Hot Dog Daddy O's - To Be My Girl
TTITLE9=The Sugarbees - Fever
TTITLE10=The Kerry Michaels Band - Gimme a Pigfoot 
TTITLE11=Band of Oz - Sittin' On It All the Time
TTITLE12=Michelle Murray  - Cow Cow Boogie
TTITLE13=The Roadrunners - Let the Boogie Woogie Roll
TTITLE14=The Red Hot Pokers - Morning Noon and Night
TTITLE15=Rockin' Louie and Mamma Jammers - Let's Go, Let's Go, Let's Go
TTITLE16=The Embers - Sh-Boom (Life Could Be a Dream)
EXTD=
EXTT0=
EXTT1=
EXTT2=
EXTT3=
EXTT4=
EXTT5=
EXTT6=
EXTT7=
EXTT8=
EXTT9=
EXTT10=
EXTT11=
EXTT12=
EXTT13=
EXTT14=
EXTT15=
EXTT16=
PLAYORDER=
